<?xml version="1.0" encoding="utf-8"?>
<!-- Generator: Adobe Illustrator 19.2.1, SVG Export Plug-In . SVG Version: 6.00 Build 0)  -->
<svg version="1.1" id="layer" xmlns="http://www.w3.org/2000/svg" xmlns:xlink="http://www.w3.org/1999/xlink" x="0px" y="0px"
	 viewBox="0 0 652 652" style="enable-background:new 0 0 652 652;" xml:space="preserve">
<style type="text/css">
	.st0{fill:#151B4E;}
</style>
<path class="st0" d="M364.5,333.5c-0.2-0.7-0.4-1.5-0.8-2.1c-0.3-0.6-0.8-1.2-1.3-1.7c-0.5-0.5-1.2-0.9-1.8-1.1
	c-0.8-0.3-1.6-0.4-2.5-0.4c-2.4-0.1-4.7,1.1-6,3.2c-0.6,1-1.1,2.1-1.3,3.3c-0.6,2.5-0.6,5,0,7.5c0.3,1.1,0.7,2.3,1.3,3.3
	c1.3,2,3.6,3.2,6,3.2c0.9,0,1.8-0.2,2.6-0.5c0.8-0.4,1.4-0.9,2-1.5c0.6-0.7,1-1.4,1.3-2.2c0.3-0.9,0.5-1.8,0.6-2.7h4.4
	c-0.1,1.5-0.4,3-1,4.4c-0.5,1.3-1.3,2.4-2.3,3.4c-1,1-2.2,1.7-3.4,2.2c-1.4,0.5-2.8,0.8-4.3,0.8c-1.8,0-3.6-0.4-5.2-1.1
	c-1.5-0.7-2.8-1.7-3.9-3c-1.1-1.3-1.9-2.8-2.5-4.5c-1.1-3.5-1.1-7.3,0-10.8c0.5-1.6,1.4-3.1,2.5-4.4c2.2-2.7,5.6-4.2,9.1-4.1
	c1.4,0,2.7,0.2,4.1,0.6c1.2,0.4,2.4,1,3.4,1.8c1,0.8,1.8,1.8,2.4,2.9c0.6,1.2,1,2.5,1.1,3.9L364.5,333.5L364.5,333.5L364.5,333.5z
	 M373.1,325h12.3c2.3-0.2,4.6,0.5,6.4,1.9c1.5,1.4,2.2,3.3,2.1,5.3c0,1.1-0.2,2.1-0.5,3.2c-0.3,0.8-0.8,1.4-1.3,2
	c-0.4,0.4-0.9,0.8-1.4,1.1c-0.5,0.2-0.8,0.4-1,0.4v0.1c0.4,0.1,0.9,0.2,1.3,0.4c0.5,0.2,0.9,0.5,1.3,1c0.4,0.5,0.7,1.1,0.9,1.7
	c0.3,0.9,0.4,1.8,0.4,2.7c0,1.4,0.1,2.9,0.3,4.3c0.1,1,0.5,1.9,1.1,2.7h-4.8c-0.3-0.6-0.5-1.2-0.6-1.9c-0.1-0.7-0.1-1.4-0.1-2
	c0-1.1-0.1-2.1-0.2-3.2c-0.1-0.8-0.4-1.5-0.8-2.2c-0.4-0.6-0.9-1.1-1.6-1.3c-0.8-0.3-1.7-0.4-2.5-0.4h-6.7v11h-4.5L373.1,325
	L373.1,325L373.1,325z M377.7,337.2h7.4c1.2,0.1,2.4-0.3,3.3-1.1c0.8-0.9,1.2-2,1.1-3.2c0-0.7-0.1-1.4-0.4-2.1
	c-0.2-0.5-0.5-0.9-1-1.3c-0.4-0.3-0.9-0.5-1.5-0.6c-0.5-0.1-1.1-0.1-1.7-0.1h-7.3L377.7,337.2L377.7,337.2z M398.3,325h4.5v15.6
	c0,0.9,0,1.8,0.1,2.7c0.1,0.9,0.3,1.7,0.7,2.5c0.4,0.7,1.1,1.4,1.8,1.8c2.2,0.9,4.6,0.9,6.8,0c0.8-0.4,1.4-1.1,1.8-1.8
	c0.4-0.8,0.7-1.6,0.7-2.5c0.1-0.9,0.1-1.8,0.1-2.7V325h4.5v17.1c0,1.5-0.2,3.1-0.8,4.5c-0.5,1.2-1.2,2.3-2.2,3.2
	c-1,0.9-2.1,1.5-3.3,1.9c-2.8,0.9-5.9,0.9-8.7,0c-1.3-0.4-2.4-1-3.3-1.9c-1-0.9-1.7-2-2.2-3.2c-0.5-1.4-0.8-2.9-0.8-4.5V325
	L398.3,325z M424.7,325h4.5v26.7h-4.5V325z M437.7,342.8c0,0.9,0.2,1.8,0.5,2.7c0.3,0.7,0.8,1.3,1.4,1.8c0.6,0.5,1.3,0.8,2.1,1
	c0.8,0.2,1.7,0.3,2.5,0.3c0.9,0,1.7-0.1,2.5-0.4c0.6-0.2,1.2-0.5,1.7-0.9c0.4-0.3,0.8-0.8,1-1.3c0.2-0.5,0.3-1,0.3-1.5
	c0.1-0.8-0.2-1.6-0.7-2.3c-0.4-0.4-0.9-0.8-1.5-1c-1.1-0.4-2.1-0.7-3.2-1c-1.2-0.3-2.7-0.7-4.5-1.2c-1-0.3-1.9-0.7-2.8-1.2
	c-0.7-0.4-1.3-1-1.8-1.6c-0.4-0.6-0.7-1.2-0.9-1.9c-0.2-0.7-0.3-1.4-0.3-2.1c0-1.2,0.3-2.4,0.8-3.5c0.5-1,1.3-1.8,2.1-2.5
	c0.9-0.7,1.9-1.1,3.1-1.4c1.1-0.3,2.3-0.5,3.4-0.5c1.3,0,2.6,0.2,3.8,0.5c1.1,0.3,2.2,0.9,3.2,1.6c0.9,0.7,1.6,1.6,2.2,2.7
	c0.5,1.2,0.8,2.4,0.8,3.7H449c0-1.4-0.6-2.8-1.7-3.6c-1.1-0.7-2.5-1.1-3.9-1.1c-0.5,0-1.1,0.1-1.6,0.2s-1,0.3-1.5,0.6
	c-0.5,0.3-0.9,0.6-1.1,1.1c-0.3,0.5-0.5,1.1-0.4,1.7c0,0.8,0.3,1.6,0.9,2.2c0.6,0.6,1.4,1,2.2,1.2l1.1,0.3l2.2,0.6l2.4,0.6l1.7,0.5
	c0.8,0.3,1.5,0.6,2.2,1.1c0.6,0.4,1.1,1,1.6,1.6c0.4,0.6,0.7,1.3,1,2c0.9,3.2-0.3,6.6-2.9,8.5c-1,0.7-2.1,1.2-3.3,1.5
	c-1.2,0.3-2.5,0.5-3.8,0.5c-1.4,0-2.8-0.2-4.1-0.6c-1.2-0.3-2.4-0.9-3.4-1.7c-1-0.8-1.8-1.8-2.3-3c-0.6-1.3-0.9-2.8-0.9-4.3
	L437.7,342.8L437.7,342.8L437.7,342.8z M458.2,325h18.6v4h-14.1v7h13v3.8h-13v7.8H477v4h-18.8L458.2,325
	C458.2,325.1,458.2,325,458.2,325z M491,325h4.5v22.6h13.1v4H491L491,325L491,325z M511.7,325h4.6v26.7h-4.5L511.7,325L511.7,325
	L511.7,325z M521.6,325h4.8l11.8,19.7l0,0V325h4.3v26.7h-4.8l-11.7-19.6h-0.1v19.6h-4.3L521.6,325L521.6,325z M547.8,325h18.6v4
	h-14.1v7h13v3.8h-13v7.8h14.3v4h-18.8V325L547.8,325z M573.6,342.8c0,0.9,0.1,1.8,0.5,2.7c0.3,0.7,0.8,1.3,1.4,1.8
	c0.6,0.5,1.3,0.8,2.1,1c0.8,0.2,1.7,0.3,2.6,0.3c0.9,0,1.7-0.1,2.5-0.4c0.6-0.2,1.2-0.5,1.7-0.9c0.4-0.3,0.7-0.8,0.9-1.3
	c0.2-0.5,0.3-1,0.3-1.5c0.1-0.8-0.2-1.6-0.7-2.3c-0.4-0.4-0.9-0.8-1.5-1c-1-0.4-2.1-0.7-3.2-1c-1.2-0.3-2.7-0.7-4.5-1.2
	c-1-0.3-1.9-0.7-2.8-1.2c-0.7-0.4-1.3-1-1.8-1.6c-0.4-0.6-0.7-1.2-0.9-1.9c-0.2-0.7-0.3-1.4-0.3-2.1c0-1.2,0.3-2.4,0.8-3.5
	c0.5-1,1.3-1.8,2.2-2.5c0.9-0.7,1.9-1.1,3-1.4c1.1-0.3,2.3-0.5,3.4-0.5c1.3,0,2.6,0.2,3.8,0.5c1.1,0.3,2.2,0.9,3.2,1.6
	c0.9,0.7,1.6,1.6,2.1,2.7c0.5,1.1,0.8,2.4,0.8,3.7h-4.5c0-1.4-0.6-2.8-1.7-3.6c-1.1-0.7-2.5-1.1-3.9-1.1c-0.5,0-1.1,0.1-1.6,0.2
	c-0.5,0.1-1,0.3-1.5,0.6c-0.4,0.3-0.9,0.6-1.1,1.1c-0.3,0.5-0.5,1.1-0.4,1.7c-0.1,0.8,0.3,1.6,0.8,2.2c0.6,0.6,1.4,1,2.2,1.2
	l1.1,0.3l2.2,0.6l2.4,0.7l1.7,0.5c0.8,0.3,1.5,0.6,2.2,1.1c0.6,0.4,1.1,1,1.6,1.6c0.4,0.6,0.7,1.3,0.9,2c0.9,3.2-0.2,6.6-2.9,8.5
	c-1,0.7-2.1,1.2-3.3,1.5c-1.2,0.3-2.5,0.5-3.8,0.5c-1.4,0-2.8-0.2-4.1-0.6c-1.2-0.3-2.4-0.9-3.4-1.7c-1-0.8-1.8-1.8-2.3-3
	c-0.6-1.4-0.9-2.8-0.9-4.3L573.6,342.8L573.6,342.8z M347.1,363.3h4.5V390h-4.5V363.3z M356.9,363.3h4.8l11.8,19.6l0,0v-19.6h4.3
	V390h-4.8l-11.7-19.6h-0.1V390h-4.3L356.9,363.3L356.9,363.3L356.9,363.3z M380.7,363.3h20.9v4h-8.2v22.6h-4.5v-22.6h-8.2
	L380.7,363.3L380.7,363.3L380.7,363.3z M404.6,363.3h18.6v4h-14.1v7h13v3.8h-13v7.8h14.3v4h-18.8V363.3L404.6,363.3z M427.4,363.3
	h12.3c2.3-0.2,4.6,0.5,6.4,1.9c1.5,1.4,2.2,3.3,2.1,5.3c0,1.1-0.2,2.1-0.5,3.2c-0.3,0.7-0.8,1.4-1.3,2c-0.4,0.5-0.9,0.8-1.4,1.1
	c-0.5,0.2-0.8,0.4-1,0.5l0,0c0.4,0.1,0.9,0.2,1.3,0.4c0.5,0.2,0.9,0.5,1.2,1c0.4,0.5,0.8,1.1,1,1.7c0.3,0.9,0.4,1.8,0.4,2.7
	c0,1.4,0.1,2.9,0.4,4.3c0.1,1,0.5,1.9,1.1,2.7h-4.8c-0.3-0.6-0.5-1.2-0.6-1.9c-0.1-0.7-0.1-1.4-0.1-2c0-1.1-0.1-2.1-0.2-3.2
	c-0.1-0.8-0.4-1.5-0.8-2.2c-0.4-0.6-0.9-1-1.6-1.3c-0.8-0.3-1.7-0.4-2.6-0.4h-6.7v11h-4.5L427.4,363.3L427.4,363.3L427.4,363.3z
	 M431.9,375.5h7.4c1.2,0.1,2.4-0.3,3.3-1.1c0.8-0.9,1.2-2,1.1-3.2c0-0.7-0.1-1.4-0.4-2.1c-0.2-0.5-0.5-0.9-1-1.3
	c-0.4-0.3-0.9-0.5-1.5-0.6c-0.5-0.1-1.1-0.2-1.7-0.2h-7.3V375.5L431.9,375.5L431.9,375.5z M452.6,363.3h4.8l11.8,19.6l0,0v-19.6h4.3
	V390h-4.8L457,370.4h-0.1V390h-4.3L452.6,363.3L452.6,363.3z M485.8,363.3h4.8l9.9,26.7h-4.8l-2.4-7.1H483l-2.4,7.1h-4.6
	L485.8,363.3z M484.2,379.4h7.9l-3.8-11.5h-0.1L484.2,379.4z M497.2,363.3h20.9v4h-8.2v22.6h-4.5v-22.6h-8.2L497.2,363.3
	L497.2,363.3L497.2,363.3z M521.1,363.3h4.5V390h-4.5V363.3z M542.1,362.7c3.5-0.1,6.8,1.5,9.1,4.1c1.1,1.3,1.9,2.8,2.5,4.5
	c1.1,3.5,1.1,7.3,0,10.8c-0.5,1.6-1.4,3.1-2.5,4.4c-1.1,1.3-2.4,2.3-3.9,3c-3.3,1.5-7.1,1.5-10.4,0c-1.5-0.7-2.8-1.7-3.9-3
	c-1.1-1.3-1.9-2.8-2.5-4.4c-1.1-3.5-1.1-7.3,0-10.8c0.5-1.6,1.4-3.1,2.5-4.5C535.3,364.1,538.7,362.6,542.1,362.7z M542.1,366.5
	c-2.4-0.1-4.7,1.1-6,3.2c-0.6,1-1.1,2.1-1.3,3.3c-0.6,2.5-0.6,5,0,7.5c0.3,1.1,0.7,2.3,1.3,3.3c2.2,3.3,6.6,4.2,9.9,2
	c0.8-0.5,1.5-1.2,2-2c0.6-1,1.1-2.1,1.3-3.3c0.6-2.5,0.6-5,0-7.5c-0.3-1.1-0.7-2.2-1.3-3.3C546.8,367.6,544.6,366.4,542.1,366.5
	L542.1,366.5L542.1,366.5z M558.5,363.3h4.7L575,383l0,0v-19.6h4.3V390h-4.7l-11.8-19.6l0,0V390h-4.3L558.5,363.3L558.5,363.3
	L558.5,363.3z M591.6,363.3h4.8l9.9,26.7h-4.9l-2.4-7.1h-10.3l-2.4,7.1h-4.6L591.6,363.3z M590,379.4h7.9l-3.9-11.5h-0.1L590,379.4z
	 M608.8,363.3h4.5v22.6h13.1v4h-17.7L608.8,363.3L608.8,363.3z M353.9,400.7h4.8l9.9,26.7h-4.8l-2.4-7.1h-10.3l-2.4,7.1H344
	L353.9,400.7z M352.3,416.7h7.9l-3.8-11.5h-0.1L352.3,416.7z M374.1,418.5c0,0.9,0.1,1.8,0.5,2.7c0.3,0.7,0.8,1.3,1.4,1.8
	c0.6,0.5,1.3,0.8,2.1,1c0.8,0.2,1.7,0.3,2.6,0.3c0.9,0,1.7-0.2,2.5-0.4c0.6-0.2,1.2-0.5,1.7-0.9c0.4-0.4,0.8-0.8,1-1.3
	c0.2-0.5,0.3-1,0.3-1.5c0.1-0.8-0.2-1.6-0.7-2.3c-0.4-0.4-0.9-0.8-1.5-1c-1.1-0.4-2.1-0.7-3.2-1c-1.2-0.3-2.7-0.7-4.4-1.2
	c-1-0.2-1.9-0.6-2.8-1.2c-0.7-0.4-1.3-1-1.8-1.6c-0.4-0.6-0.7-1.2-0.9-1.9c-0.2-0.7-0.3-1.4-0.3-2.1c0-1.2,0.2-2.4,0.8-3.5
	c0.5-1,1.3-1.8,2.2-2.5c0.9-0.7,1.9-1.1,3-1.4c1.1-0.3,2.3-0.4,3.4-0.4c1.3,0,2.6,0.2,3.8,0.5c1.1,0.3,2.2,0.9,3.2,1.6
	c0.9,0.7,1.6,1.6,2.2,2.7c0.5,1.1,0.8,2.4,0.8,3.7h-4.5c0-1.4-0.6-2.8-1.7-3.7c-1.1-0.7-2.5-1.1-3.9-1.1c-0.5,0-1.1,0.1-1.6,0.2
	c-0.5,0.1-1.1,0.3-1.5,0.5c-0.4,0.3-0.8,0.6-1.1,1.1c-0.4,0.5-0.5,1.1-0.5,1.7c-0.1,0.8,0.3,1.6,0.8,2.2c0.6,0.6,1.4,1,2.2,1.2
	l1.1,0.3l2.2,0.6l2.4,0.7l1.7,0.5c0.8,0.2,1.5,0.6,2.2,1.1c0.6,0.5,1.1,1,1.6,1.6c0.4,0.6,0.7,1.3,0.9,2c0.9,3.2-0.2,6.6-2.9,8.5
	c-1,0.7-2.1,1.2-3.3,1.5c-1.2,0.3-2.5,0.5-3.8,0.4c-1.4,0-2.8-0.2-4.1-0.5c-1.2-0.3-2.4-0.9-3.4-1.7c-1-0.8-1.8-1.8-2.3-2.9
	c-0.6-1.4-0.9-2.8-0.9-4.3L374.1,418.5L374.1,418.5L374.1,418.5z M397.5,418.5c0,0.9,0.2,1.8,0.5,2.7c0.3,0.7,0.8,1.3,1.4,1.8
	c0.6,0.5,1.3,0.8,2.1,1c0.8,0.2,1.7,0.3,2.6,0.3c0.8,0,1.7-0.1,2.5-0.4c0.6-0.2,1.2-0.5,1.7-0.9c0.4-0.4,0.8-0.8,0.9-1.3
	c0.2-0.5,0.3-1,0.3-1.5c0.1-0.8-0.2-1.6-0.7-2.2c-0.4-0.5-0.9-0.8-1.5-1c-1.1-0.4-2.1-0.7-3.2-1c-1.2-0.3-2.7-0.7-4.5-1.2
	c-1-0.3-1.9-0.7-2.8-1.2c-0.7-0.4-1.3-1-1.8-1.7c-0.4-0.6-0.7-1.2-0.9-1.9c-0.2-0.7-0.3-1.4-0.3-2.1c0-1.2,0.3-2.4,0.8-3.5
	c0.5-1,1.3-1.8,2.1-2.5c0.9-0.7,1.9-1.1,3.1-1.4c1.1-0.3,2.3-0.4,3.4-0.4c1.3,0,2.6,0.2,3.8,0.5c1.1,0.3,2.2,0.9,3.2,1.6
	c0.9,0.7,1.6,1.6,2.2,2.7c0.5,1.1,0.8,2.4,0.8,3.7h-4.5c0-1.4-0.6-2.8-1.7-3.7c-1.1-0.7-2.5-1.1-3.9-1.1c-0.5,0-1.1,0.1-1.6,0.2
	c-0.5,0.1-1,0.3-1.5,0.5c-0.5,0.3-0.9,0.6-1.1,1.1c-0.3,0.5-0.5,1.1-0.5,1.7c0,0.8,0.3,1.6,0.9,2.2c0.6,0.6,1.4,1,2.2,1.2l1.1,0.3
	l2.2,0.6l2.4,0.7l1.7,0.5c0.8,0.2,1.5,0.6,2.2,1.1c0.6,0.5,1.1,1,1.6,1.6c0.4,0.6,0.7,1.3,1,2c0.9,3.2-0.3,6.6-2.9,8.5
	c-1,0.7-2.1,1.2-3.3,1.5c-1.2,0.3-2.5,0.5-3.8,0.4c-1.4,0-2.8-0.2-4.1-0.5c-1.2-0.4-2.4-0.9-3.4-1.7c-1-0.8-1.8-1.8-2.3-3
	c-0.6-1.4-0.9-2.8-0.9-4.3L397.5,418.5L397.5,418.5L397.5,418.5L397.5,418.5z M429,400.1c3.5-0.1,6.8,1.4,9.1,4.1
	c1.1,1.3,1.9,2.8,2.5,4.4c1.1,3.5,1.1,7.3,0,10.8c-0.5,1.6-1.4,3.1-2.5,4.5c-1.1,1.3-2.4,2.3-3.9,3c-3.3,1.5-7.1,1.5-10.4,0
	c-1.5-0.7-2.8-1.7-3.9-3c-1.1-1.3-1.9-2.8-2.4-4.5c-1.1-3.5-1.1-7.3,0-10.8c0.5-1.6,1.4-3.1,2.4-4.4
	C422.1,401.5,425.5,400,429,400.1z M429,403.9c-2.4-0.1-4.7,1.1-6,3.2c-0.6,1-1.1,2.1-1.3,3.3c-0.6,2.5-0.6,5,0,7.5
	c0.3,1.1,0.7,2.3,1.3,3.3c2.2,3.3,6.6,4.2,9.9,2c0.8-0.5,1.5-1.2,2-2c0.6-1,1.1-2.1,1.3-3.3c0.6-2.5,0.6-5,0-7.5
	c-0.3-1.1-0.7-2.3-1.3-3.3C433.6,405,431.4,403.8,429,403.9L429,403.9L429,403.9z M462.8,409.2c-0.2-0.7-0.4-1.4-0.8-2.1
	c-0.3-0.6-0.8-1.2-1.3-1.7c-0.5-0.5-1.2-0.9-1.9-1.1c-0.8-0.3-1.7-0.4-2.5-0.4c-2.4-0.1-4.7,1.1-6,3.2c-0.6,1-1.1,2.1-1.3,3.3
	c-0.6,2.5-0.6,5,0,7.5c0.3,1.2,0.7,2.3,1.3,3.3c1.3,2,3.6,3.2,6,3.2c0.9,0,1.8-0.2,2.7-0.5c0.8-0.4,1.4-0.9,2-1.5
	c0.6-0.7,1-1.4,1.3-2.2c0.4-0.9,0.6-1.8,0.7-2.8h4.4c-0.1,1.5-0.4,3-1,4.4c-0.5,1.3-1.3,2.5-2.3,3.4s-2.1,1.7-3.4,2.2
	c-1.4,0.5-2.8,0.8-4.3,0.8c-1.8,0-3.6-0.3-5.2-1.1c-1.5-0.7-2.8-1.7-3.9-3c-1.1-1.3-1.9-2.8-2.5-4.4c-1.1-3.5-1.1-7.3,0-10.8
	c0.5-1.6,1.4-3.1,2.5-4.5c2.2-2.7,5.6-4.2,9.1-4.1c1.4,0,2.8,0.2,4.1,0.6c1.2,0.4,2.4,1,3.4,1.8c1,0.8,1.8,1.8,2.4,2.9
	c0.6,1.2,1,2.5,1.1,3.9L462.8,409.2L462.8,409.2L462.8,409.2L462.8,409.2z M471.5,400.7h4.5v26.7h-4.5V400.7z M489,400.7h4.8
	l9.9,26.7h-4.8l-2.4-7.1h-10.3l-2.4,7.1h-4.6L489,400.7z M487.4,416.7h7.9l-3.9-11.5h-0.1L487.4,416.7z M500.9,400.7h20.9v4h-8.2
	v22.6H509v-22.6h-8.2V400.7L500.9,400.7L500.9,400.7z M525.2,400.7h4.5v26.7h-4.5V400.7z M546.7,400.1c3.5-0.1,6.8,1.4,9.1,4.1
	c1.1,1.3,1.9,2.8,2.4,4.4c1.1,3.5,1.1,7.3,0,10.8c-0.5,1.6-1.4,3.1-2.4,4.5c-1.1,1.3-2.4,2.3-3.9,3c-3.3,1.5-7.1,1.5-10.4,0
	c-1.5-0.7-2.8-1.7-3.9-3c-1.1-1.3-1.9-2.8-2.5-4.5c-1.1-3.5-1.1-7.3,0-10.8c0.5-1.6,1.3-3.1,2.5-4.4
	C539.8,401.5,543.2,400,546.7,400.1z M546.7,403.9c-2.4-0.1-4.7,1.1-6,3.2c-0.6,1-1.1,2.1-1.3,3.3c-0.6,2.5-0.6,5,0,7.5
	c0.2,1.1,0.7,2.3,1.3,3.3c2.2,3.3,6.6,4.2,9.9,2c0.8-0.5,1.5-1.2,2-2c0.6-1,1.1-2.1,1.3-3.3c0.6-2.5,0.6-5,0-7.5
	c-0.3-1.1-0.7-2.3-1.3-3.3C551.3,405,549.1,403.8,546.7,403.9L546.7,403.9L546.7,403.9z M563.5,400.7h4.8l11.8,19.7l0,0v-19.7h4.3
	v26.7h-4.8l-11.8-19.6h-0.1v19.6h-4.3L563.5,400.7L563.5,400.7L563.5,400.7z M191.1,324.5h25.7v102.9h-25.7V324.5z M119.6,324.5
	h25.7v81.2h40.2v21.6h-65.9V324.5z M96.8,358.1c-3.2-8.8-11.4-14.8-20.7-15c-13.7,0-24.6,9.3-24.6,31.7c0,14.6,5.9,31.7,25.5,31.7
	c6.7,0,16.5-5,20.5-14l19.7,9.5c-8.6,15.5-23.4,25.4-40.2,25.4c-31.8,0-50.4-24.6-50.4-52.6c0-28,17.4-52.7,48.5-52.7
	c19.6,0,32.5,9.5,41.8,26.1L96.8,358.1z M261,380.1l3.9,5.8l-11.5,8.2V389L261,380.1z M256.9,324.5h-31.5l-0.1,102.8h25.7l0.1-65.6
	l45.5,66l35.8,0L256.9,324.5z M289,364.4l0.1-0.1c32.2-27.6,60.9-59.1,85.4-93.8c-16.1-9.9-50.3-10.8-50.3-10.8
	c-78.9-2.7-168.5,33.3-221,63.1l0.8,1.1c21.2-10.5,80.5-37.3,143.7-39.5c0,0,23.6-1,38.3,6.3c0,0,18.2,7.5,11.8,31.3
	c-3.6,11.6-9,22.5-16,32.4l-0.1,0.1L289,364.4z M98.9,320.8l-0.7-0.9c0,0,1.8-1.7,4.2-3.8c18.4-15.9,38-30.3,58.8-43
	c33.5-20.5,66.8-33.6,90.3-37.5c4.3-0.6,8.6-1,12.9-1.1c0,0,20.7-0.3,20.7,10.8c0.1,2.2-0.5,4.3-1.8,6c0,0-2.5-4.5-6.7-5.7
	c-5-1.3-23-4.9-74.9,12.9c-7.7,2.7-15.2,6-22.5,9.7c-8.6,4.4-17.4,9.2-25.8,14.2c-3,1.7-5.9,3.7-8.7,5.4
	c-11,6.6-20.7,13.8-28.2,19.3C106.9,314,98.9,320.8,98.9,320.8z M227.5,236.2c0,0-5.1-17.7-53.8,9.3c-18.5,10.3-33,22.6-45.6,33.9
	c-12.4,11.1-24,23.1-34.9,35.8l-0.8-1.1c0,0,18.6-25.4,42.2-46.2c21.9-19.4,30.9-24.7,47.6-34.1
	C202.3,222.7,231.9,217.7,227.5,236.2z M161.2,239.3c-28-6.6-75.8,73-75.8,73l-0.7-1c5.9-11.8,12.5-23.2,19.7-34.2
	c11.6-17.4,27.5-32.3,35.2-36.6C163,227.4,161.2,239.3,161.2,239.3z"/>
</svg>
