<?xml version="1.0" ?><svg id="Layer_1" style="enable-background:new 0 0 120 120;" version="1.1" viewBox="0 0 120 120" xml:space="preserve" xmlns="http://www.w3.org/2000/svg" xmlns:xlink="http://www.w3.org/1999/xlink"><style type="text/css">
	.st0{fill:#F9B43A;}
	.st1{fill:#EF3A3A;}
	.st2{fill:#FFFFFF;}
	.st3{fill:#76E27E;}
	.st4{fill:#7A9CFF;}
</style><g><ellipse class="st0" cx="36.5" cy="92.9" rx="13.2" ry="2.9"/><path class="st1" d="M51.2,77.6L38.1,92.2c-0.9,1-2.4,1-3.3,0L21.7,77.6c-3.2-3.6-5-8.3-5-13.2v0c0-10.9,8.8-19.7,19.7-19.7h0.1   c10.9,0,19.7,8.8,19.7,19.7v0C56.2,69.3,54.4,74,51.2,77.6z"/><circle class="st2" cx="36.5" cy="64.4" r="9.9"/><ellipse class="st0" cx="91.4" cy="53.2" rx="7.9" ry="1.7"/><path class="st3" d="M100.3,43.9l-7.9,8.8c-0.5,0.6-1.4,0.6-2,0l-7.9-8.8c-1.9-2.2-3-5-3-7.9v0c0-6.5,5.3-11.9,11.9-11.9h0.1   c6.5,0,11.9,5.3,11.9,11.9v0C103.3,38.9,102.2,41.8,100.3,43.9z"/><circle class="st2" cx="91.4" cy="36" r="6"/><g><path class="st4" d="M92.8,93.7h-0.6c-0.5,0-0.9-0.4-0.9-0.9s0.4-0.9,0.9-0.9h0.6c1.2,0,2.3-0.2,3.4-0.7c0.4-0.2,0.9,0,1.1,0.5    c0.2,0.4,0,0.9-0.5,1.1C95.6,93.5,94.2,93.7,92.8,93.7z M87.8,93.7h-4.4c-0.5,0-0.9-0.4-0.9-0.9s0.4-0.9,0.9-0.9h4.4    c0.5,0,0.9,0.4,0.9,0.9S88.3,93.7,87.8,93.7z M79,93.7h-4.4c-0.5,0-0.9-0.4-0.9-0.9s0.4-0.9,0.9-0.9H79c0.5,0,0.9,0.4,0.9,0.9    S79.5,93.7,79,93.7z M70.2,93.7h-4.4c-0.5,0-0.9-0.4-0.9-0.9s0.4-0.9,0.9-0.9h4.4c0.5,0,0.9,0.4,0.9,0.9S70.6,93.7,70.2,93.7z     M61.3,93.7h-4.4c-0.5,0-0.9-0.4-0.9-0.9s0.4-0.9,0.9-0.9h4.4c0.5,0,0.9,0.4,0.9,0.9S61.8,93.7,61.3,93.7z M100.1,90.4    c-0.2,0-0.4-0.1-0.6-0.2c-0.4-0.3-0.4-0.8-0.1-1.2c0.9-1,1.5-2.2,1.8-3.5c0.1-0.5,0.6-0.7,1-0.6c0.5,0.1,0.7,0.6,0.6,1    c-0.4,1.5-1.2,3-2.2,4.2C100.6,90.3,100.3,90.4,100.1,90.4z M102.4,82.1c-0.5,0-0.8-0.4-0.8-0.8c-0.1-1.4-0.4-2.6-1.1-3.8    c-0.2-0.4-0.1-0.9,0.3-1.2c0.4-0.2,0.9-0.1,1.2,0.3c0.8,1.4,1.2,3,1.3,4.6C103.3,81.7,102.9,82.1,102.4,82.1    C102.4,82.1,102.4,82.1,102.4,82.1z M98.3,74.7c-0.2,0-0.3,0-0.5-0.1c-1.1-0.8-2.4-1.3-3.7-1.4c-0.5-0.1-0.8-0.5-0.7-1    c0.1-0.5,0.5-0.8,1-0.7c1.6,0.2,3.1,0.8,4.4,1.7c0.4,0.3,0.5,0.8,0.2,1.2C98.8,74.6,98.5,74.7,98.3,74.7z M89.8,73h-4.4    c-0.5,0-0.9-0.4-0.9-0.9s0.4-0.9,0.9-0.9h4.4c0.5,0,0.9,0.4,0.9,0.9S90.2,73,89.8,73z M80.9,73h-4.4c-0.5,0-0.9-0.4-0.9-0.9    s0.4-0.9,0.9-0.9h4.4c0.5,0,0.9,0.4,0.9,0.9S81.4,73,80.9,73z M72.1,73h-0.9c-1.3,0-2.6-0.2-3.8-0.7c-0.4-0.2-0.7-0.7-0.5-1.1    c0.2-0.4,0.7-0.7,1.1-0.5c1,0.4,2.1,0.6,3.2,0.6h0.9c0.5,0,0.9,0.4,0.9,0.9S72.6,73,72.1,73z M64.2,69.9c-0.2,0-0.5-0.1-0.6-0.3    c-1.1-1.2-1.9-2.6-2.3-4.2c-0.1-0.5,0.1-0.9,0.6-1c0.5-0.1,0.9,0.1,1,0.6c0.4,1.3,1,2.5,1.9,3.5c0.3,0.3,0.3,0.9-0.1,1.2    C64.6,69.8,64.4,69.9,64.2,69.9z M61.8,61.7c-0.1,0-0.1,0-0.2,0c-0.5-0.1-0.8-0.5-0.7-1c0.3-1.6,1-3.1,1.9-4.4    c0.3-0.4,0.8-0.4,1.2-0.2c0.4,0.3,0.4,0.8,0.2,1.2c-0.8,1.1-1.4,2.3-1.6,3.6C62.6,61.4,62.2,61.7,61.8,61.7z M67,54.9    c-0.3,0-0.6-0.2-0.8-0.5c-0.2-0.4,0-0.9,0.4-1.1c1.4-0.7,3-1.1,4.6-1.1c0.5,0,0.9,0.4,0.9,0.9c0,0.5-0.4,0.9-0.8,0.9    c-1.4,0-2.7,0.3-3.9,0.9C67.2,54.9,67.1,54.9,67,54.9z M80.1,53.9h-4.4c-0.5,0-0.9-0.4-0.9-0.9c0-0.5,0.4-0.9,0.9-0.9h4.4    c0.5,0,0.9,0.4,0.9,0.9C80.9,53.5,80.6,53.9,80.1,53.9z"/></g></g></svg>