<?xml version="1.0" encoding="UTF-8" standalone="no"?>
<!DOCTYPE svg PUBLIC "-//W3C//DTD SVG 1.1//EN" "http://www.w3.org/Graphics/SVG/1.1/DTD/svg11.dtd">
<svg width="100%" height="100%" viewBox="0 0 300 100" version="1.1" xmlns="http://www.w3.org/2000/svg" xmlns:xlink="http://www.w3.org/1999/xlink" xml:space="preserve" xmlns:serif="http://www.serif.com/" style="fill-rule:evenodd;clip-rule:evenodd;stroke-linejoin:round;stroke-miterlimit:2;">
    <g transform="matrix(1,0,0,1,-99.9251,-206.975)">
        <g>
            <g transform="matrix(1,0,0,1,109.362,267.725)">
                <g>
                    <path d="M23.625,-27.187C21.26,-27.187 19.229,-26.302 17.521,-24.542C15.823,-22.792 14.979,-20.687 14.979,-18.229C14.979,-15.729 15.823,-13.604 17.521,-11.854C19.229,-10.104 21.26,-9.229 23.625,-9.229C24.76,-9.229 25.839,-9.365 26.854,-9.646C27.865,-9.937 28.609,-10.219 29.083,-10.5L29.729,-10.937L33.979,-2.208C33.656,-1.969 33.198,-1.672 32.604,-1.312C32.005,-0.948 30.651,-0.464 28.542,0.146C26.443,0.755 24.193,1.063 21.792,1.063C16.443,1.063 11.74,-0.812 7.688,-4.562C3.646,-8.323 1.625,-12.839 1.625,-18.104C1.625,-23.396 3.646,-27.943 7.688,-31.75C11.74,-35.552 16.443,-37.458 21.792,-37.458C24.193,-37.458 26.406,-37.172 28.438,-36.604C30.479,-36.047 31.927,-35.484 32.792,-34.917L33.979,-34.062L29.729,-25.479C28.172,-26.615 26.135,-27.187 23.625,-27.187Z" style="fill-rule:nonzero;"/>
                </g>
            </g>
            <g transform="matrix(1,0,0,1,137.523,267.725)">
                <g>
                    <path d="M6.729,-4.5C3.323,-8.219 1.625,-12.776 1.625,-18.167C1.625,-23.552 3.323,-28.115 6.729,-31.854C10.146,-35.589 14.479,-37.458 19.729,-37.458C24.547,-37.458 28.521,-35.943 31.646,-32.917L31.646,-36.396L44.208,-36.396L44.208,0L31.792,0L31.792,-4.125L31.646,-4.125C28.521,-0.667 24.547,1.063 19.729,1.063C14.479,1.063 10.146,-0.792 6.729,-4.5ZM17.417,-24.333C15.792,-22.719 14.979,-20.656 14.979,-18.146C14.979,-15.646 15.755,-13.604 17.313,-12.021C18.865,-10.437 20.922,-9.646 23.479,-9.646C25.948,-9.646 27.979,-10.448 29.563,-12.062C31.146,-13.672 31.938,-15.708 31.938,-18.167C31.938,-20.667 31.115,-22.719 29.479,-24.333C27.854,-25.943 25.854,-26.75 23.479,-26.75C21.073,-26.75 19.052,-25.943 17.417,-24.333Z" style="fill-rule:nonzero;"/>
                </g>
            </g>
            <g transform="matrix(1,0,0,1,179.304,267.725)">
                <g>
                    <path d="M4.25,0L4.25,-36.396L16.813,-36.396L16.813,-31.146L16.958,-31.146C17.052,-31.339 17.208,-31.573 17.417,-31.854C17.635,-32.146 18.104,-32.646 18.813,-33.354C19.521,-34.062 20.271,-34.698 21.063,-35.271C21.865,-35.839 22.906,-36.344 24.188,-36.792C25.464,-37.234 26.771,-37.458 28.104,-37.458C29.479,-37.458 30.823,-37.271 32.146,-36.896C33.464,-36.521 34.438,-36.146 35.063,-35.771L36.042,-35.187L30.792,-24.542C29.234,-25.875 27.063,-26.542 24.271,-26.542C22.755,-26.542 21.448,-26.208 20.354,-25.542C19.271,-24.875 18.5,-24.068 18.042,-23.125C17.594,-22.177 17.276,-21.375 17.083,-20.708C16.901,-20.052 16.813,-19.542 16.813,-19.167L16.813,0L4.25,0Z" style="fill-rule:nonzero;"/>
                </g>
            </g>
            <g transform="matrix(1,0,0,1,207.961,267.725)">
                <g>
                    <path d="M7.688,-4.333C3.646,-7.927 1.625,-12.542 1.625,-18.167C1.625,-23.792 3.729,-28.406 7.938,-32.021C12.156,-35.646 17.365,-37.458 23.563,-37.458C29.656,-37.458 34.797,-35.635 38.979,-32C43.172,-28.359 45.271,-23.75 45.271,-18.167C45.271,-12.583 43.219,-7.979 39.125,-4.354C35.042,-0.74 29.854,1.063 23.563,1.063C17.031,1.063 11.74,-0.734 7.688,-4.333ZM17.417,-24.333C15.792,-22.719 14.979,-20.656 14.979,-18.146C14.979,-15.646 15.755,-13.604 17.313,-12.021C18.865,-10.437 20.922,-9.646 23.479,-9.646C25.948,-9.646 27.979,-10.448 29.563,-12.062C31.146,-13.672 31.938,-15.708 31.938,-18.167C31.938,-20.667 31.115,-22.719 29.479,-24.333C27.854,-25.943 25.854,-26.75 23.479,-26.75C21.073,-26.75 19.052,-25.943 17.417,-24.333Z" style="fill-rule:nonzero;"/>
                </g>
            </g>
            <g transform="matrix(1,0,0,1,248.181,267.725)">
                <g>
                    <path d="M4.25,0L4.25,-36.396L16.813,-36.396L16.813,-32.562L16.958,-32.562C20.219,-35.823 23.698,-37.458 27.396,-37.458C30.031,-37.458 32.51,-36.917 34.833,-35.833C37.151,-34.75 38.901,-33.068 40.083,-30.792C43.776,-35.234 47.797,-37.458 52.146,-37.458C56.031,-37.458 59.375,-36.365 62.167,-34.187C64.958,-32.021 66.354,-28.615 66.354,-23.979L66.354,0L53.792,0L53.792,-20.583C53.792,-22.51 53.255,-24.13 52.188,-25.437C51.115,-26.74 49.521,-27.396 47.396,-27.396C45.547,-27.396 44.135,-26.839 43.167,-25.729C42.208,-24.615 41.677,-23.276 41.583,-21.708L41.583,0L29.021,0L29.021,-20.583C29.021,-22.51 28.484,-24.13 27.417,-25.437C26.359,-26.74 24.771,-27.396 22.646,-27.396C20.698,-27.396 19.24,-26.792 18.271,-25.583C17.297,-24.375 16.813,-22.943 16.813,-21.292L16.813,0L4.25,0Z" style="fill-rule:nonzero;"/>
                </g>
            </g>
            <g transform="matrix(1,0,0,1,311.385,267.725)">
                <g>
                    <path d="M6.729,-4.5C3.323,-8.219 1.625,-12.776 1.625,-18.167C1.625,-23.552 3.323,-28.115 6.729,-31.854C10.146,-35.589 14.479,-37.458 19.729,-37.458C24.547,-37.458 28.521,-35.943 31.646,-32.917L31.646,-36.396L44.208,-36.396L44.208,0L31.792,0L31.792,-4.125L31.646,-4.125C28.521,-0.667 24.547,1.063 19.729,1.063C14.479,1.063 10.146,-0.792 6.729,-4.5ZM17.417,-24.333C15.792,-22.719 14.979,-20.656 14.979,-18.146C14.979,-15.646 15.755,-13.604 17.313,-12.021C18.865,-10.437 20.922,-9.646 23.479,-9.646C25.948,-9.646 27.979,-10.448 29.563,-12.062C31.146,-13.672 31.938,-15.708 31.938,-18.167C31.938,-20.667 31.115,-22.719 29.479,-24.333C27.854,-25.943 25.854,-26.75 23.479,-26.75C21.073,-26.75 19.052,-25.943 17.417,-24.333Z" style="fill-rule:nonzero;"/>
                </g>
            </g>
            <g transform="matrix(1,0,0,1,365.862,267.725)">
                <g>
                    <path d="M12.354,-15.187C14.615,-15.187 16.542,-14.396 18.125,-12.812C19.708,-11.229 20.5,-9.297 20.5,-7.021C20.5,-4.797 19.708,-2.896 18.125,-1.312C16.542,0.271 14.615,1.063 12.354,1.063C10.13,1.063 8.219,0.271 6.625,-1.312C5.042,-2.896 4.25,-4.797 4.25,-7.021C4.25,-9.297 5.042,-11.229 6.625,-12.812C8.219,-14.396 10.13,-15.187 12.354,-15.187Z" style="fill-rule:nonzero;"/>
                </g>
            </g>
            <g transform="matrix(1,0,0,1,102.283,283.537)">
                <g>
                    <path d="M7.375,-9.625C7.568,-9.625 7.729,-9.568 7.854,-9.458C7.979,-9.344 8.042,-9.193 8.042,-9C8.042,-8.802 7.979,-8.651 7.854,-8.542C7.729,-8.427 7.568,-8.375 7.375,-8.375L4.938,-8.375L4.938,-0.667C4.938,-0.469 4.865,-0.312 4.729,-0.187C4.604,-0.062 4.438,0 4.229,0C4.031,0 3.865,-0.062 3.729,-0.187C3.604,-0.312 3.542,-0.469 3.542,-0.667L3.542,-8.375L1.104,-8.375C0.906,-8.375 0.75,-8.427 0.625,-8.542C0.5,-8.651 0.438,-8.802 0.438,-9C0.438,-9.193 0.5,-9.344 0.625,-9.458C0.75,-9.568 0.906,-9.625 1.104,-9.625L7.375,-9.625Z" style="fill-rule:nonzero;"/>
                </g>
            </g>
            <g transform="matrix(1,0,0,1,119.718,283.537)">
                <g>
                    <path d="M8.479,-1.104C8.563,-1.031 8.63,-0.948 8.688,-0.854C8.74,-0.755 8.771,-0.656 8.771,-0.562C8.771,-0.365 8.708,-0.219 8.583,-0.125C8.458,-0.042 8.313,0 8.146,0C7.964,0 7.818,-0.031 7.708,-0.104C7.427,-0.271 7.198,-0.526 7.021,-0.875C6.854,-1.219 6.771,-1.734 6.771,-2.417C6.771,-2.875 6.63,-3.208 6.354,-3.417C6.073,-3.635 5.714,-3.75 5.271,-3.75L2.5,-3.75L2.5,-0.667C2.5,-0.469 2.443,-0.312 2.333,-0.187C2.219,-0.062 2.083,0 1.917,0C1.708,0 1.526,-0.062 1.375,-0.187C1.219,-0.312 1.146,-0.469 1.146,-0.667L1.146,-8.958C1.146,-9.151 1.208,-9.312 1.333,-9.437C1.458,-9.562 1.609,-9.625 1.792,-9.625L5.667,-9.625C6.167,-9.625 6.615,-9.5 7.021,-9.25C7.438,-9.01 7.771,-8.677 8.021,-8.25C8.271,-7.833 8.396,-7.354 8.396,-6.812C8.396,-6.297 8.255,-5.818 7.979,-5.375C7.698,-4.927 7.344,-4.604 6.917,-4.396C7.25,-4.214 7.51,-3.964 7.708,-3.646C7.917,-3.339 8.026,-2.979 8.042,-2.562C8.083,-2.047 8.125,-1.693 8.167,-1.5C8.208,-1.318 8.313,-1.187 8.479,-1.104ZM5.646,-4.896C5.865,-4.906 6.083,-5 6.292,-5.167C6.5,-5.333 6.667,-5.552 6.792,-5.833C6.917,-6.109 6.979,-6.422 6.979,-6.771C6.979,-7.214 6.839,-7.589 6.563,-7.896C6.297,-8.198 5.979,-8.354 5.604,-8.354L2.5,-8.354L2.5,-4.896L5.646,-4.896Z" style="fill-rule:nonzero;"/>
                </g>
            </g>
            <g transform="matrix(1,0,0,1,138.017,283.537)">
                <g>
                    <path d="M8.542,-0.854C8.568,-0.771 8.583,-0.677 8.583,-0.583C8.583,-0.401 8.521,-0.25 8.396,-0.125C8.271,-0.01 8.125,0.042 7.958,0.042C7.833,0.042 7.714,0.005 7.604,-0.062C7.505,-0.146 7.422,-0.255 7.354,-0.396L6.5,-2.417L2.25,-2.417L1.417,-0.375C1.375,-0.25 1.297,-0.146 1.188,-0.062C1.089,0.005 0.969,0.042 0.833,0.042C0.635,0.042 0.49,-0.005 0.396,-0.104C0.297,-0.214 0.25,-0.354 0.25,-0.521C0.25,-0.562 0.255,-0.635 0.271,-0.75L3.792,-9.25C3.844,-9.385 3.927,-9.49 4.042,-9.562C4.167,-9.646 4.297,-9.677 4.438,-9.667C4.573,-9.667 4.698,-9.625 4.813,-9.542C4.922,-9.469 5,-9.375 5.042,-9.25L8.542,-0.854ZM2.771,-3.667L5.979,-3.667L4.375,-7.521L2.771,-3.667Z" style="fill-rule:nonzero;"/>
                </g>
            </g>
            <g transform="matrix(1,0,0,1,155.795,283.537)">
                <g>
                    <path d="M8.146,-9.646C8.323,-9.646 8.479,-9.583 8.604,-9.458C8.74,-9.344 8.813,-9.198 8.813,-9.021C8.813,-8.922 8.792,-8.818 8.75,-8.708L5.229,-0.417C5.172,-0.292 5.083,-0.187 4.958,-0.104C4.844,-0.031 4.719,0 4.583,0C4.469,-0.01 4.359,-0.052 4.25,-0.125C4.151,-0.193 4.068,-0.292 4,-0.417L0.5,-8.708C0.458,-8.792 0.438,-8.885 0.438,-9C0.438,-9.193 0.505,-9.344 0.646,-9.458C0.781,-9.583 0.938,-9.646 1.104,-9.646C1.38,-9.646 1.583,-9.5 1.708,-9.208L4.708,-2.125L7.542,-9.229C7.594,-9.354 7.672,-9.448 7.771,-9.521C7.88,-9.604 8.005,-9.646 8.146,-9.646Z" style="fill-rule:nonzero;"/>
                </g>
            </g>
            <g transform="matrix(1,0,0,1,173.985,283.537)">
                <g>
                    <path d="M6.583,-1.271C6.776,-1.271 6.938,-1.198 7.063,-1.062C7.188,-0.937 7.25,-0.792 7.25,-0.625C7.25,-0.443 7.188,-0.292 7.063,-0.167C6.938,-0.052 6.776,0 6.583,0L1.792,0C1.609,0 1.458,-0.062 1.333,-0.187C1.208,-0.312 1.146,-0.469 1.146,-0.667L1.146,-8.958C1.146,-9.151 1.208,-9.312 1.333,-9.437C1.458,-9.562 1.609,-9.625 1.792,-9.625L6.583,-9.625C6.776,-9.625 6.938,-9.562 7.063,-9.437C7.188,-9.323 7.25,-9.172 7.25,-8.979C7.25,-8.797 7.188,-8.646 7.063,-8.521C6.938,-8.406 6.776,-8.354 6.583,-8.354L2.5,-8.354L2.5,-5.562L5.958,-5.562C6.151,-5.562 6.313,-5.5 6.438,-5.375C6.563,-5.25 6.625,-5.094 6.625,-4.917C6.625,-4.719 6.563,-4.568 6.438,-4.458C6.313,-4.359 6.151,-4.312 5.958,-4.312L2.5,-4.312L2.5,-1.271L6.583,-1.271Z" style="fill-rule:nonzero;"/>
                </g>
            </g>
            <g transform="matrix(1,0,0,1,190.774,283.537)">
                <g>
                    <path d="M6.458,-1.271C6.635,-1.271 6.792,-1.208 6.917,-1.083C7.042,-0.969 7.104,-0.818 7.104,-0.625C7.104,-0.443 7.042,-0.292 6.917,-0.167C6.792,-0.052 6.635,0 6.458,0L1.792,0C1.609,0 1.458,-0.062 1.333,-0.187C1.208,-0.312 1.146,-0.469 1.146,-0.667L1.146,-8.958C1.146,-9.151 1.208,-9.312 1.333,-9.437C1.458,-9.562 1.625,-9.625 1.833,-9.625C2.01,-9.625 2.167,-9.562 2.292,-9.437C2.427,-9.312 2.5,-9.151 2.5,-8.958L2.5,-1.271L6.458,-1.271Z" style="fill-rule:nonzero;"/>
                </g>
            </g>
            <g transform="matrix(1,0,0,1,220.052,283.537)">
                <g>
                    <path d="M6.583,-1.271C6.776,-1.271 6.938,-1.198 7.063,-1.062C7.188,-0.937 7.25,-0.792 7.25,-0.625C7.25,-0.443 7.188,-0.292 7.063,-0.167C6.938,-0.052 6.776,0 6.583,0L1.792,0C1.609,0 1.458,-0.062 1.333,-0.187C1.208,-0.312 1.146,-0.469 1.146,-0.667L1.146,-8.958C1.146,-9.151 1.208,-9.312 1.333,-9.437C1.458,-9.562 1.609,-9.625 1.792,-9.625L6.583,-9.625C6.776,-9.625 6.938,-9.562 7.063,-9.437C7.188,-9.323 7.25,-9.172 7.25,-8.979C7.25,-8.797 7.188,-8.646 7.063,-8.521C6.938,-8.406 6.776,-8.354 6.583,-8.354L2.5,-8.354L2.5,-5.562L5.958,-5.562C6.151,-5.562 6.313,-5.5 6.438,-5.375C6.563,-5.25 6.625,-5.094 6.625,-4.917C6.625,-4.719 6.563,-4.568 6.438,-4.458C6.313,-4.359 6.151,-4.312 5.958,-4.312L2.5,-4.312L2.5,-1.271L6.583,-1.271Z" style="fill-rule:nonzero;"/>
                </g>
            </g>
            <g transform="matrix(1,0,0,1,236.841,283.537)">
                <g>
                    <path d="M8.021,-1C8.104,-0.885 8.146,-0.75 8.146,-0.583C8.146,-0.401 8.073,-0.25 7.938,-0.125C7.813,0 7.667,0.063 7.5,0.063C7.276,0.063 7.104,-0.031 6.979,-0.229L4.313,-3.792L1.688,-0.229C1.547,-0.031 1.365,0.063 1.146,0.063C0.99,0.063 0.854,0.005 0.729,-0.104C0.615,-0.229 0.563,-0.359 0.563,-0.5C0.563,-0.667 0.615,-0.818 0.729,-0.958L3.542,-4.792L0.708,-8.604C0.625,-8.729 0.583,-8.859 0.583,-9C0.583,-9.193 0.646,-9.354 0.771,-9.479C0.906,-9.604 1.063,-9.667 1.229,-9.667C1.339,-9.667 1.443,-9.635 1.542,-9.583C1.635,-9.542 1.714,-9.479 1.771,-9.396L4.417,-5.854L7.021,-9.354C7.172,-9.547 7.344,-9.646 7.542,-9.646C7.708,-9.646 7.854,-9.583 7.979,-9.458C8.104,-9.344 8.167,-9.208 8.167,-9.042C8.167,-8.901 8.115,-8.771 8.021,-8.646L5.167,-4.833L8.021,-1Z" style="fill-rule:nonzero;"/>
                </g>
            </g>
            <g transform="matrix(1,0,0,1,254.509,283.537)">
                <g>
                    <path d="M5,-9.625C5.484,-9.625 5.927,-9.49 6.333,-9.229C6.75,-8.964 7.073,-8.609 7.313,-8.167C7.563,-7.719 7.688,-7.229 7.688,-6.687C7.688,-6.146 7.563,-5.646 7.313,-5.187C7.073,-4.729 6.75,-4.365 6.333,-4.104C5.927,-3.839 5.484,-3.708 5,-3.708L2.417,-3.708L2.417,-0.667C2.417,-0.469 2.354,-0.312 2.229,-0.187C2.104,-0.062 1.948,0 1.771,0C1.573,0 1.422,-0.062 1.313,-0.187C1.198,-0.312 1.146,-0.469 1.146,-0.667L1.146,-8.958C1.146,-9.151 1.208,-9.312 1.333,-9.437C1.458,-9.562 1.609,-9.625 1.792,-9.625L5,-9.625ZM5,-4.958C5.234,-4.958 5.458,-5.031 5.667,-5.187C5.885,-5.354 6.063,-5.568 6.188,-5.833C6.313,-6.094 6.375,-6.38 6.375,-6.687C6.375,-7.146 6.234,-7.531 5.958,-7.854C5.693,-8.187 5.375,-8.354 5,-8.354L2.417,-8.354L2.417,-4.958L5,-4.958Z" style="fill-rule:nonzero;"/>
                </g>
            </g>
            <g transform="matrix(1,0,0,1,271.71,283.537)">
                <g>
                    <path d="M6.583,-1.271C6.776,-1.271 6.938,-1.198 7.063,-1.062C7.188,-0.937 7.25,-0.792 7.25,-0.625C7.25,-0.443 7.188,-0.292 7.063,-0.167C6.938,-0.052 6.776,0 6.583,0L1.792,0C1.609,0 1.458,-0.062 1.333,-0.187C1.208,-0.312 1.146,-0.469 1.146,-0.667L1.146,-8.958C1.146,-9.151 1.208,-9.312 1.333,-9.437C1.458,-9.562 1.609,-9.625 1.792,-9.625L6.583,-9.625C6.776,-9.625 6.938,-9.562 7.063,-9.437C7.188,-9.323 7.25,-9.172 7.25,-8.979C7.25,-8.797 7.188,-8.646 7.063,-8.521C6.938,-8.406 6.776,-8.354 6.583,-8.354L2.5,-8.354L2.5,-5.562L5.958,-5.562C6.151,-5.562 6.313,-5.5 6.438,-5.375C6.563,-5.25 6.625,-5.094 6.625,-4.917C6.625,-4.719 6.563,-4.568 6.438,-4.458C6.313,-4.359 6.151,-4.312 5.958,-4.312L2.5,-4.312L2.5,-1.271L6.583,-1.271Z" style="fill-rule:nonzero;"/>
                </g>
            </g>
            <g transform="matrix(1,0,0,1,288.499,283.537)">
                <g>
                    <path d="M8.479,-1.104C8.563,-1.031 8.63,-0.948 8.688,-0.854C8.74,-0.755 8.771,-0.656 8.771,-0.562C8.771,-0.365 8.708,-0.219 8.583,-0.125C8.458,-0.042 8.313,0 8.146,0C7.964,0 7.818,-0.031 7.708,-0.104C7.427,-0.271 7.198,-0.526 7.021,-0.875C6.854,-1.219 6.771,-1.734 6.771,-2.417C6.771,-2.875 6.63,-3.208 6.354,-3.417C6.073,-3.635 5.714,-3.75 5.271,-3.75L2.5,-3.75L2.5,-0.667C2.5,-0.469 2.443,-0.312 2.333,-0.187C2.219,-0.062 2.083,0 1.917,0C1.708,0 1.526,-0.062 1.375,-0.187C1.219,-0.312 1.146,-0.469 1.146,-0.667L1.146,-8.958C1.146,-9.151 1.208,-9.312 1.333,-9.437C1.458,-9.562 1.609,-9.625 1.792,-9.625L5.667,-9.625C6.167,-9.625 6.615,-9.5 7.021,-9.25C7.438,-9.01 7.771,-8.677 8.021,-8.25C8.271,-7.833 8.396,-7.354 8.396,-6.812C8.396,-6.297 8.255,-5.818 7.979,-5.375C7.698,-4.927 7.344,-4.604 6.917,-4.396C7.25,-4.214 7.51,-3.964 7.708,-3.646C7.917,-3.339 8.026,-2.979 8.042,-2.562C8.083,-2.047 8.125,-1.693 8.167,-1.5C8.208,-1.318 8.313,-1.187 8.479,-1.104ZM5.646,-4.896C5.865,-4.906 6.083,-5 6.292,-5.167C6.5,-5.333 6.667,-5.552 6.792,-5.833C6.917,-6.109 6.979,-6.422 6.979,-6.771C6.979,-7.214 6.839,-7.589 6.563,-7.896C6.297,-8.198 5.979,-8.354 5.604,-8.354L2.5,-8.354L2.5,-4.896L5.646,-4.896Z" style="fill-rule:nonzero;"/>
                </g>
            </g>
            <g transform="matrix(1,0,0,1,306.799,283.537)">
                <g>
                    <path d="M2.5,-0.667C2.5,-0.469 2.427,-0.312 2.292,-0.187C2.151,-0.062 1.99,0 1.813,0C1.615,0 1.458,-0.062 1.333,-0.187C1.208,-0.312 1.146,-0.469 1.146,-0.667L1.146,-8.958C1.146,-9.151 1.208,-9.312 1.333,-9.437C1.458,-9.562 1.625,-9.625 1.833,-9.625C2.01,-9.625 2.167,-9.562 2.292,-9.437C2.427,-9.312 2.5,-9.151 2.5,-8.958L2.5,-0.667Z" style="fill-rule:nonzero;"/>
                </g>
            </g>
            <g transform="matrix(1,0,0,1,319.399,283.537)">
                <g>
                    <path d="M6.583,-1.271C6.776,-1.271 6.938,-1.198 7.063,-1.062C7.188,-0.937 7.25,-0.792 7.25,-0.625C7.25,-0.443 7.188,-0.292 7.063,-0.167C6.938,-0.052 6.776,0 6.583,0L1.792,0C1.609,0 1.458,-0.062 1.333,-0.187C1.208,-0.312 1.146,-0.469 1.146,-0.667L1.146,-8.958C1.146,-9.151 1.208,-9.312 1.333,-9.437C1.458,-9.562 1.609,-9.625 1.792,-9.625L6.583,-9.625C6.776,-9.625 6.938,-9.562 7.063,-9.437C7.188,-9.323 7.25,-9.172 7.25,-8.979C7.25,-8.797 7.188,-8.646 7.063,-8.521C6.938,-8.406 6.776,-8.354 6.583,-8.354L2.5,-8.354L2.5,-5.562L5.958,-5.562C6.151,-5.562 6.313,-5.5 6.438,-5.375C6.563,-5.25 6.625,-5.094 6.625,-4.917C6.625,-4.719 6.563,-4.568 6.438,-4.458C6.313,-4.359 6.151,-4.312 5.958,-4.312L2.5,-4.312L2.5,-1.271L6.583,-1.271Z" style="fill-rule:nonzero;"/>
                </g>
            </g>
            <g transform="matrix(1,0,0,1,336.187,283.537)">
                <g>
                    <path d="M8.333,-9.625C8.51,-9.625 8.651,-9.568 8.75,-9.458C8.859,-9.344 8.917,-9.198 8.917,-9.021L8.917,-0.667C8.917,-0.469 8.854,-0.312 8.729,-0.187C8.615,-0.062 8.464,0 8.271,0C8.156,0 8.052,-0.01 7.958,-0.042C7.875,-0.083 7.802,-0.13 7.75,-0.187L2.333,-7.229L2.333,-0.604C2.333,-0.437 2.276,-0.292 2.167,-0.167C2.052,-0.052 1.906,0 1.729,0C1.563,0 1.422,-0.052 1.313,-0.167C1.198,-0.292 1.146,-0.437 1.146,-0.604L1.146,-8.958C1.146,-9.151 1.208,-9.312 1.333,-9.437C1.458,-9.562 1.609,-9.625 1.792,-9.625C1.901,-9.625 2.005,-9.604 2.104,-9.562C2.198,-9.521 2.276,-9.464 2.333,-9.396L7.729,-2.333L7.729,-9.021C7.729,-9.198 7.781,-9.344 7.896,-9.458C8.005,-9.568 8.151,-9.625 8.333,-9.625Z" style="fill-rule:nonzero;"/>
                </g>
            </g>
            <g transform="matrix(1,0,0,1,355.201,283.537)">
                <g>
                    <path d="M8,-9.062C8.219,-8.937 8.333,-8.755 8.333,-8.521C8.333,-8.354 8.276,-8.198 8.167,-8.062C8.052,-7.906 7.901,-7.833 7.708,-7.833C7.583,-7.833 7.458,-7.865 7.333,-7.937C6.776,-8.255 6.167,-8.417 5.5,-8.417C4.818,-8.417 4.214,-8.26 3.688,-7.958C3.156,-7.651 2.74,-7.229 2.438,-6.687C2.146,-6.146 2,-5.521 2,-4.812C2,-4.047 2.151,-3.385 2.458,-2.833C2.76,-2.292 3.177,-1.875 3.708,-1.583C4.234,-1.292 4.833,-1.146 5.5,-1.146C6.177,-1.146 6.792,-1.312 7.333,-1.646C7.443,-1.698 7.568,-1.729 7.708,-1.729C7.901,-1.729 8.063,-1.651 8.188,-1.5C8.297,-1.359 8.354,-1.214 8.354,-1.062C8.354,-0.948 8.318,-0.844 8.25,-0.75C8.193,-0.651 8.115,-0.573 8.021,-0.521C7.656,-0.323 7.255,-0.167 6.813,-0.042C6.365,0.083 5.927,0.146 5.5,0.146C4.609,0.146 3.792,-0.047 3.042,-0.437C2.292,-0.839 1.693,-1.417 1.25,-2.167C0.802,-2.917 0.583,-3.797 0.583,-4.812C0.583,-5.74 0.797,-6.573 1.229,-7.312C1.656,-8.062 2.24,-8.651 2.979,-9.083C3.729,-9.51 4.568,-9.729 5.5,-9.729C6.385,-9.729 7.219,-9.505 8,-9.062Z" style="fill-rule:nonzero;"/>
                </g>
            </g>
            <g transform="matrix(1,0,0,1,372.924,283.537)">
                <g>
                    <path d="M6.583,-1.271C6.776,-1.271 6.938,-1.198 7.063,-1.062C7.188,-0.937 7.25,-0.792 7.25,-0.625C7.25,-0.443 7.188,-0.292 7.063,-0.167C6.938,-0.052 6.776,0 6.583,0L1.792,0C1.609,0 1.458,-0.062 1.333,-0.187C1.208,-0.312 1.146,-0.469 1.146,-0.667L1.146,-8.958C1.146,-9.151 1.208,-9.312 1.333,-9.437C1.458,-9.562 1.609,-9.625 1.792,-9.625L6.583,-9.625C6.776,-9.625 6.938,-9.562 7.063,-9.437C7.188,-9.323 7.25,-9.172 7.25,-8.979C7.25,-8.797 7.188,-8.646 7.063,-8.521C6.938,-8.406 6.776,-8.354 6.583,-8.354L2.5,-8.354L2.5,-5.562L5.958,-5.562C6.151,-5.562 6.313,-5.5 6.438,-5.375C6.563,-5.25 6.625,-5.094 6.625,-4.917C6.625,-4.719 6.563,-4.568 6.438,-4.458C6.313,-4.359 6.151,-4.312 5.958,-4.312L2.5,-4.312L2.5,-1.271L6.583,-1.271Z" style="fill-rule:nonzero;"/>
                </g>
            </g>
            <g transform="matrix(1,0,0,1,389.713,283.537)">
                <g>
                    <path d="M4.063,0.146C3.396,0.146 2.802,0.052 2.292,-0.125C1.776,-0.318 1.281,-0.63 0.813,-1.062C0.615,-1.229 0.521,-1.417 0.521,-1.625C0.521,-1.792 0.583,-1.937 0.708,-2.062C0.844,-2.198 1,-2.271 1.167,-2.271C1.318,-2.271 1.448,-2.219 1.563,-2.125C1.938,-1.776 2.318,-1.521 2.708,-1.354C3.094,-1.198 3.531,-1.125 4.021,-1.125C4.604,-1.125 5.089,-1.255 5.479,-1.521C5.88,-1.781 6.083,-2.115 6.083,-2.521C6.083,-3.005 5.885,-3.375 5.5,-3.625C5.109,-3.885 4.51,-4.109 3.708,-4.292C2.76,-4.484 2.031,-4.797 1.521,-5.229C1.021,-5.672 0.771,-6.281 0.771,-7.062C0.771,-7.604 0.906,-8.073 1.188,-8.479C1.479,-8.896 1.875,-9.214 2.375,-9.437C2.875,-9.656 3.443,-9.771 4.083,-9.771C4.651,-9.771 5.188,-9.672 5.688,-9.479C6.198,-9.297 6.609,-9.052 6.917,-8.75C7.125,-8.568 7.229,-8.375 7.229,-8.167C7.229,-8 7.167,-7.854 7.042,-7.729C6.917,-7.604 6.771,-7.542 6.604,-7.542C6.479,-7.542 6.375,-7.573 6.292,-7.646C6.042,-7.88 5.708,-8.083 5.292,-8.25C4.875,-8.417 4.469,-8.5 4.083,-8.5C3.469,-8.5 2.984,-8.375 2.625,-8.125C2.26,-7.875 2.083,-7.542 2.083,-7.125C2.083,-6.677 2.26,-6.333 2.625,-6.083C2.984,-5.844 3.521,-5.646 4.229,-5.479C4.948,-5.323 5.531,-5.146 5.979,-4.937C6.438,-4.729 6.792,-4.437 7.042,-4.062C7.292,-3.687 7.417,-3.193 7.417,-2.583C7.417,-2.052 7.26,-1.583 6.958,-1.167C6.667,-0.75 6.26,-0.422 5.75,-0.187C5.234,0.031 4.672,0.146 4.063,0.146Z" style="fill-rule:nonzero;"/>
                </g>
            </g>
        </g>
    </g>
</svg>
