<?xml version="1.0" encoding="UTF-8" standalone="no"?>
<!DOCTYPE svg PUBLIC "-//W3C//DTD SVG 1.1//EN" "http://www.w3.org/Graphics/SVG/1.1/DTD/svg11.dtd">
<svg width="100%" height="100%" viewBox="0 0 341 341" version="1.1" xmlns="http://www.w3.org/2000/svg" xmlns:xlink="http://www.w3.org/1999/xlink" xml:space="preserve" xmlns:serif="http://www.serif.com/" style="fill-rule:evenodd;clip-rule:evenodd;stroke-linejoin:round;stroke-miterlimit:2;">
    <g id="g4755" transform="matrix(2.66543,0,0,2.66543,-134.307,-273.678)">
        <g id="Capa-1" serif:id="Capa 1">
            <g id="g47551" serif:id="g4755">
                <path id="path4747" d="M114.198,106.486C81.283,106.486 54.198,133.571 54.198,166.486C54.198,199.401 81.283,226.486 114.198,226.486C147.113,226.486 174.198,199.401 174.198,166.486C174.181,161.502 173.542,156.54 172.298,151.714C172.291,151.723 172.285,151.731 172.278,151.74L123.427,107.276C120.375,106.775 117.29,106.511 114.198,106.486Z" style="fill:rgb(165,139,219);fill-rule:nonzero;"/>
                <path id="rect982" d="M123.641,138.731C117.892,138.709 110.902,138.996 108.979,140.427C105.214,143.229 106.058,148.625 106.058,148.625L106.071,148.625L106.071,158.434L95.269,158.383L98.639,167.921L106.071,167.942L106.071,195.493L118.515,195.493L118.515,167.978L126.638,168.001L129.49,158.544L118.515,158.492L118.515,148.737L131.803,148.856L131.833,138.953C131.833,138.953 128.113,138.749 123.642,138.731L123.641,138.731Z" style="fill:white;fill-rule:nonzero;"/>
                <g id="path4749" transform="matrix(0.751901,0.659276,-0.638535,0.769592,0,0)">
                    <path d="M229.872,0.521C229.872,0.521 225.756,28.93 196.412,28.117C170.652,27.403 163.548,-0.712 163.548,-0.712" style="fill:rgb(142,113,203);fill-rule:nonzero;"/>
                </g>
            </g>
        </g>
    </g>
</svg>
