<?xml version="1.0" encoding="UTF-8" standalone="no"?>
<!DOCTYPE svg PUBLIC "-//W3C//DTD SVG 1.1//EN" "http://www.w3.org/Graphics/SVG/1.1/DTD/svg11.dtd">
<svg width="100%" height="100%" viewBox="0 0 512 512" version="1.1" xmlns="http://www.w3.org/2000/svg" xmlns:xlink="http://www.w3.org/1999/xlink" xml:space="preserve" xmlns:serif="http://www.serif.com/" style="fill-rule:evenodd;clip-rule:evenodd;stroke-linejoin:round;stroke-miterlimit:2;">
    <path d="M256,0C114.615,0 0,114.615 0,256C0,397.385 114.615,512 256,512C397.385,512 512,397.385 512,256C512,114.615 397.385,0 256,0Z" style="fill:rgb(165,139,219);fill-rule:nonzero;"/>
    <path d="M393.729,187.531C393.729,187.531 393.728,187.531 393.728,187.531C354.03,187.531 321.364,154.865 321.364,115.167C321.364,115.167 269.664,115.167 269.664,115.167L269.664,317.615C269.638,341.715 249.8,361.532 225.7,361.532C201.582,361.532 181.736,341.686 181.736,317.568C181.736,293.45 201.582,273.604 225.7,273.604C229.903,273.604 234.085,274.207 238.117,275.394L238.117,225.138C233.984,224.581 229.818,224.301 225.648,224.301C174.461,224.301 132.34,266.422 132.34,317.609C132.34,368.796 174.461,410.917 225.648,410.917C276.833,410.917 318.953,368.8 318.956,317.615L320.456,215.283C341.695,230.875 367.376,239.268 393.723,239.229L393.729,187.531Z" style="fill:url(#_Linear1);fill-rule:nonzero;"/>
    <path d="M380.062,173.448C340.365,173.447 307.699,140.78 307.7,101.083L256,101.083L256,303.531C255.975,327.632 236.137,347.449 212.036,347.449C187.918,347.449 168.072,327.603 168.072,303.485C168.072,279.367 187.918,259.521 212.036,259.521C216.239,259.521 220.421,260.124 224.453,261.311L224.453,211.054C220.32,210.497 216.154,210.217 211.984,210.217C160.797,210.217 118.676,252.338 118.676,303.525C118.676,354.712 160.797,396.833 211.984,396.833C263.169,396.833 305.289,354.716 305.292,303.531L306.8,201.2C328.039,216.791 353.72,225.184 380.067,225.145L380.062,173.448Z" style="fill:url(#_Linear2);fill-rule:nonzero;"/>
    <path d="M380.062,186.237C362.18,182.796 346.239,172.729 335.447,158.061C321.806,147.385 312.443,132.158 309.072,115.167L269.667,115.167L269.667,317.615C269.665,341.759 249.796,361.626 225.652,361.626C210.281,361.626 195.983,353.574 188.014,340.43C175.548,332.316 168.009,318.413 168.009,303.539C168.009,279.391 187.879,259.521 212.027,259.521C216.233,259.521 220.418,260.124 224.453,261.311L224.453,224.328C173.728,224.981 132.354,266.891 132.354,317.62C132.354,338.48 139.35,358.75 152.217,375.169C168.987,389.162 190.15,396.832 211.992,396.832C263.175,396.832 305.292,354.715 305.292,303.532C305.292,303.532 305.292,303.531 305.292,303.531L306.8,201.2C328.039,216.791 353.72,225.184 380.067,225.145L380.062,186.237Z" style="fill:url(#_Linear3);fill-rule:nonzero;"/>
    <defs>
        <linearGradient id="_Linear1" x1="0" y1="0" x2="1" y2="0" gradientUnits="userSpaceOnUse" gradientTransform="matrix(215.052,-215.053,215.053,215.052,153.06,376.967)"><stop offset="0" style="stop-color:rgb(181,5,60);stop-opacity:1"/><stop offset="0.23" style="stop-color:rgb(201,4,65);stop-opacity:1"/><stop offset="0.74" style="stop-color:rgb(240,1,75);stop-opacity:1"/><stop offset="1" style="stop-color:rgb(255,0,79);stop-opacity:1"/></linearGradient>
        <linearGradient id="_Linear2" x1="0" y1="0" x2="1" y2="0" gradientUnits="userSpaceOnUse" gradientTransform="matrix(226.53,-226.529,226.529,226.53,136.192,366.084)"><stop offset="0" style="stop-color:rgb(0,178,201);stop-opacity:1"/><stop offset="0.28" style="stop-color:rgb(0,200,212);stop-opacity:1"/><stop offset="0.74" style="stop-color:rgb(0,230,228);stop-opacity:1"/><stop offset="1" style="stop-color:rgb(0,241,234);stop-opacity:1"/></linearGradient>
        <linearGradient id="_Linear3" x1="0" y1="0" x2="1" y2="0" gradientUnits="userSpaceOnUse" gradientTransform="matrix(501.425,-501.425,501.425,501.425,9.279,506.873)"><stop offset="0" style="stop-color:rgb(221,227,228);stop-opacity:1"/><stop offset="1" style="stop-color:rgb(252,247,247);stop-opacity:1"/></linearGradient>
    </defs>
</svg>
