<?xml version="1.0" encoding="UTF-8" standalone="no"?>
<!DOCTYPE svg PUBLIC "-//W3C//DTD SVG 1.1//EN" "http://www.w3.org/Graphics/SVG/1.1/DTD/svg11.dtd">
<svg width="100%" height="100%" viewBox="0 0 341 341" version="1.1" xmlns="http://www.w3.org/2000/svg" xmlns:xlink="http://www.w3.org/1999/xlink" xml:space="preserve" xmlns:serif="http://www.serif.com/" style="fill-rule:evenodd;clip-rule:evenodd;stroke-linecap:square;">
    <g id="Capa-1" serif:id="Capa 1" transform="matrix(2.83465,0,0,2.83465,-153.632,-301.851)">
        <path id="path4747" d="M114.198,108.553C82.417,108.553 56.265,134.705 56.265,166.486C56.265,198.267 82.417,224.419 114.198,224.419C145.979,224.419 172.131,198.267 172.131,166.486C172.114,161.674 171.498,156.883 170.297,152.223C170.29,152.232 170.284,152.24 170.277,152.248L123.109,109.316C120.163,108.832 117.183,108.577 114.198,108.553L114.198,108.553Z" style="fill:rgb(165,139,219);fill-rule:nonzero;"/>
        <path id="ellipse860" d="M115.917,139.825C101.43,139.825 89.686,151.951 89.686,166.908C89.698,172.647 91.276,179.226 92.598,180.649L90.234,193.777L103.861,192.186C107.023,193.95 110.451,193.984 115.917,193.992C130.403,193.992 142.147,181.866 142.147,166.908C142.147,151.951 130.403,139.825 115.917,139.825Z" style="fill:rgb(165,139,219);fill-rule:nonzero;stroke:white;stroke-width:8px;"/>
        <path id="rect11258" d="M105.517,159.014C104.989,163.522 106.956,168.435 109.447,172.051C112.653,176.705 116.632,180.852 121.778,181.623C122.656,181.754 124.268,180.677 124.268,180.677L124.289,180.699C126.338,179.291 126.858,176.49 125.451,174.44C124.06,172.413 120.047,172.951 117.975,174.324C116.36,172.692 114.804,170.999 113.808,169.595C112.878,168.284 111.873,166.416 110.926,164.495C112.851,163.009 114.654,159.468 113.392,157.496C112.082,155.45 109.298,154.856 107.21,156.099L107.929,157.859C107.487,156.797 107.21,156.099 107.21,156.099C107.21,156.099 105.648,157.898 105.517,159.014L105.517,159.014Z" style="fill:white;fill-rule:nonzero;"/>
        <path id="path4749" d="M170.356,152.162C170.356,152.162 149.852,170.653 129.05,151.369C110.788,134.441 122.965,109.027 122.965,109.027" style="fill:rgb(142,113,203);fill-rule:nonzero;"/>
    </g>
</svg>
